<svg xmlns="http://www.w3.org/2000/svg" xmlns:xlink="http://www.w3.org/1999/xlink" viewBox="0 0 1139 267"><defs><style>.cls-1{fill:url(#linear-gradient);}</style><linearGradient id="linear-gradient" x1="806.2" y1="-143.68" x2="534.26" y2="327.34" gradientUnits="userSpaceOnUse"><stop offset="0" stop-color="#139c61"/><stop offset="0.51" stop-color="#128855"/><stop offset="0.99" stop-color="#107148"/></linearGradient></defs><title>Asset 4</title><g id="Layer_2" data-name="Layer 2"><g id="Layer_1-2" data-name="Layer 1"><path class="cls-1" d="M1139,0V267L0,266a73.74,73.74,0,0,1,22-27c29.64-22.34,71.41-11,121.05-3,94.07,15.19,173.26,28,213.5-6,21-17.72,13-32.62,39.61-56,26.13-22.93,55.9-26.95,95.75-35,89.29-18,89.93-35,149.66-37,105.6-3.52,121.45,73.07,237.71,81,19.58,1.34,121.6,8.3,166.17-45,36.64-43.82,19.21-110.16,67.13-132A70.17,70.17,0,0,1,1139,0Z"/></g></g></svg>