<svg xmlns="http://www.w3.org/2000/svg" xmlns:xlink="http://www.w3.org/1999/xlink" viewBox="0 0 326 318.52"><defs><style>.cls-1{fill:url(#linear-gradient);}</style><linearGradient id="linear-gradient" x1="188.51" y1="115.83" x2="91.71" y2="283.5" gradientUnits="userSpaceOnUse"><stop offset="0" stop-color="#139c61"/><stop offset="0.51" stop-color="#128855"/><stop offset="0.99" stop-color="#107148"/></linearGradient></defs><title>Asset 1</title><g id="Layer_2" data-name="Layer 2"><g id="Layer_1-2" data-name="Layer 1"><path class="cls-1" d="M0,1.52v317H326a337.57,337.57,0,0,0-27-89c-11.43-24.53-17.25-28.84-21-31-26.2-15.13-54.09,14.91-83,0-13.89-7.17-21.62-21.41-29-35-12.58-23.17-8.05-33.75-21-44-3.37-2.67-14.29-6.48-36-14-21.13-7.32-20-6.33-23-8-17.06-9.68-25.33-27-33-43-5.2-10.88-5.59-14.72-13-29C31.72,9.57,27.38,5.09,22,2.52,13.65-1.47,4.89.14,0,1.52Z"/></g></g></svg>