<?xml version="1.0" standalone="no"?>
<!DOCTYPE svg PUBLIC "-//W3C//DTD SVG 20010904//EN"
 "http://www.w3.org/TR/2001/REC-SVG-20010904/DTD/svg10.dtd">
<svg version="1.0" xmlns="http://www.w3.org/2000/svg"
 width="1080.000000pt" height="1080.000000pt" viewBox="0 0 1080.000000 1080.000000"
 preserveAspectRatio="xMidYMid meet">
<metadata>
Created by potrace 1.11, written by Peter Selinger 2001-2013
</metadata>
<g transform="translate(0.000000,1080.000000) scale(0.100000,-0.100000)"
fill="#000000" stroke="none">
<path d="M5310 9581 c-16 -31 -5 -70 23 -76 12 -3 111 -9 219 -15 403 -21 738
-82 1104 -204 414 -138 801 -342 1158 -609 93 -70 114 -78 141 -51 44 45 -5
94 -265 268 -652 435 -1408 681 -2161 703 -207 6 -207 6 -219 -16z"/>
<path d="M4830 9572 c-884 -114 -1677 -486 -2348 -1101 -107 -98 -125 -124
-109 -158 20 -44 52 -40 112 13 29 27 100 91 157 142 258 234 633 483 951 632
356 166 743 287 1092 341 196 30 219 37 223 72 5 45 -23 67 -78 59z"/>
<path d="M5162 9358 c-19 -19 -14 -65 8 -81 16 -11 42 -13 108 -10 164 10 564
-23 772 -63 94 -18 105 -18 124 2 23 23 20 61 -6 78 -26 16 -294 60 -468 76
-164 14 -523 13 -538 -2z"/>
<path d="M4960 9084 c-218 -24 -476 -76 -690 -141 -129 -39 -323 -113 -342
-130 -26 -23 -22 -60 7 -79 24 -15 30 -14 132 24 692 257 1385 306 2083 146
190 -43 364 -98 554 -173 94 -38 127 -37 140 2 15 41 0 56 -89 94 -284 122
-683 221 -1029 258 -180 19 -590 18 -766 -1z"/>
<path d="M5110 8840 c-26 -26 -25 -45 1 -71 21 -21 29 -21 137 -16 241 12 608
-26 872 -89 513 -122 968 -351 1380 -691 61 -51 120 -93 129 -93 24 0 51 31
51 58 0 41 -279 261 -520 410 -269 166 -574 299 -885 387 -311 88 -588 125
-932 125 -200 0 -214 -1 -233 -20z"/>
<path d="M4160 8656 c-233 -88 -354 -146 -370 -177 -15 -28 11 -69 44 -69 13
0 63 19 112 42 49 23 156 67 238 98 82 31 154 63 160 72 7 11 7 26 0 45 -14
42 -51 39 -184 -11z"/>
<path d="M2947 8563 c-208 -159 -517 -449 -517 -487 0 -21 35 -56 58 -56 9 0
56 39 102 86 105 107 301 279 406 358 111 83 134 106 134 132 0 27 -25 54 -49
54 -10 0 -70 -39 -134 -87z"/>
<path d="M3405 8552 c-269 -169 -438 -304 -666 -532 -395 -394 -675 -830 -866
-1350 -69 -186 -79 -225 -65 -255 13 -28 61 -35 80 -12 6 7 34 80 63 163 229
663 642 1243 1190 1670 95 74 252 182 376 259 51 32 67 71 42 101 -21 25 -62
14 -154 -44z"/>
<path d="M5105 8593 c-443 -37 -833 -149 -1236 -354 -309 -158 -643 -409 -845
-636 -60 -68 -74 -89 -68 -106 9 -31 19 -39 48 -39 20 0 54 27 144 118 514
522 1198 842 1927 904 166 14 172 16 181 43 23 67 -9 82 -151 70z"/>
<path d="M5423 8589 c-21 -21 -16 -67 10 -83 13 -8 65 -16 132 -20 61 -4 153
-13 205 -20 105 -15 126 -10 136 30 11 45 -18 62 -136 78 -167 24 -333 31
-347 15z"/>
<path d="M7200 8560 c-41 -41 -31 -54 135 -163 628 -415 1126 -1044 1389
-1754 24 -65 54 -154 66 -198 31 -110 67 -141 118 -102 19 15 15 45 -24 168
-119 379 -332 795 -566 1106 -266 356 -623 683 -1000 921 -77 48 -90 50 -118
22z"/>
<path d="M6450 8370 c-41 -41 -20 -69 87 -115 547 -234 987 -586 1325 -1058
245 -343 435 -778 510 -1171 24 -131 37 -156 78 -156 41 0 54 28 44 93 -4 29
-7 55 -6 59 3 10 -54 241 -76 313 -48 154 -169 433 -257 595 -306 564 -794
1037 -1365 1325 -113 57 -292 135 -309 135 -6 0 -20 -9 -31 -20z"/>
<path d="M8256 8374 c-33 -33 -20 -60 85 -172 571 -607 961 -1419 1069 -2227
7 -49 18 -100 26 -112 18 -28 55 -30 79 -3 16 17 16 27 5 107 -102 747 -413
1471 -884 2060 -129 161 -322 363 -346 363 -10 0 -26 -7 -34 -16z"/>
<path d="M5110 8344 c-154 -18 -219 -27 -315 -46 -60 -11 -120 -27 -132 -35
-31 -18 -30 -58 1 -79 23 -14 33 -14 128 5 346 69 686 74 1037 15 329 -55 683
-184 964 -352 116 -70 131 -73 154 -27 19 36 -3 61 -109 122 -255 149 -496
247 -780 317 -242 60 -390 78 -668 81 -135 2 -261 1 -280 -1z"/>
<path d="M3378 8252 c-331 -228 -661 -558 -890 -887 -189 -273 -367 -640 -458
-946 -37 -124 -37 -144 -5 -165 41 -27 67 -2 95 93 91 313 271 687 458 958
233 337 524 627 863 861 114 79 130 102 93 138 -27 27 -56 17 -156 -52z"/>
<path d="M8077 8222 c-10 -10 -17 -26 -17 -36 0 -9 53 -74 117 -144 131 -142
242 -279 340 -417 67 -95 83 -108 121 -94 42 16 38 51 -16 131 -74 109 -195
263 -310 392 -166 186 -198 209 -235 168z"/>
<path d="M4015 8027 c-236 -125 -274 -153 -260 -197 8 -26 39 -42 62 -33 10 4
56 29 103 56 47 27 129 71 182 98 77 38 99 54 104 74 8 31 -19 65 -50 65 -12
0 -75 -29 -141 -63z"/>
<path d="M5115 8083 c-51 -13 -70 -57 -37 -86 16 -15 44 -16 227 -13 186 4
210 6 222 22 17 23 16 35 -3 62 -15 21 -20 22 -202 21 -103 -1 -196 -4 -207
-6z"/>
<path d="M4655 8006 c-353 -95 -697 -268 -989 -499 -116 -91 -313 -287 -402
-397 -141 -175 -167 -227 -125 -250 41 -21 59 -12 114 63 365 493 856 828
1439 982 156 41 180 60 142 113 -19 28 -34 27 -179 -12z"/>
<path d="M2045 7993 c-46 -50 -182 -246 -270 -388 -379 -616 -594 -1321 -622
-2040 -7 -192 -2 -215 47 -215 50 0 57 24 63 225 27 817 312 1619 811 2281 67
89 78 121 50 148 -23 24 -50 19 -79 -11z"/>
<path d="M6060 7987 c-31 -16 -38 -57 -13 -79 10 -8 63 -30 118 -48 554 -182
1041 -557 1359 -1048 36 -56 74 -105 83 -110 26 -14 61 3 69 33 14 56 -206
356 -415 566 -322 321 -663 532 -1081 668 -52 17 -95 31 -95 31 0 0 -11 -6
-25 -13z"/>
<path d="M7730 7850 c-11 -11 -20 -28 -20 -37 0 -10 46 -67 101 -127 55 -60
132 -149 171 -198 88 -110 110 -124 142 -92 32 32 19 65 -73 179 -115 143
-261 295 -283 295 -10 0 -27 -9 -38 -20z"/>
<path d="M5215 7830 c-170 -11 -226 -21 -246 -41 -25 -25 -24 -35 7 -65 17
-18 32 -24 47 -21 12 3 81 11 152 18 470 42 995 -89 1419 -355 110 -69 147
-79 169 -45 22 35 -1 66 -90 123 -114 73 -333 184 -453 229 -323 122 -682 178
-1005 157z"/>
<path d="M3600 7772 c-31 -10 -186 -138 -300 -249 -453 -436 -747 -991 -860
-1622 -18 -104 -19 -117 -5 -138 18 -26 56 -31 78 -8 8 7 18 36 21 62 100 695
488 1371 1035 1803 49 39 92 78 95 86 12 32 -32 77 -64 66z"/>
<path d="M7060 7750 c-37 -37 -26 -56 87 -147 39 -32 108 -91 152 -130 45 -40
89 -73 100 -73 22 0 51 30 51 55 0 32 -320 315 -355 315 -8 0 -24 -9 -35 -20z"/>
<path d="M4335 7607 c-154 -72 -266 -137 -277 -162 -7 -16 -7 -29 1 -43 21
-39 46 -36 139 15 48 26 127 67 177 90 116 55 137 81 95 123 -11 11 -26 20
-32 20 -7 -1 -53 -20 -103 -43z"/>
<path d="M3808 7283 c-422 -340 -741 -874 -845 -1414 -16 -85 -16 -89 2 -109
21 -24 57 -26 75 -5 7 8 23 68 37 132 72 342 237 690 463 973 70 87 259 276
363 363 59 50 73 87 45 115 -24 24 -58 11 -140 -55z"/>
<path d="M6860 7231 c-5 -11 -10 -27 -10 -35 0 -18 294 -316 310 -316 6 0 22
11 35 24 17 17 22 30 18 47 -4 12 -68 85 -144 161 -117 117 -142 138 -168 138
-20 0 -34 -7 -41 -19z"/>
<path d="M7720 7050 c-11 -11 -20 -26 -20 -33 0 -7 28 -58 62 -112 168 -273
306 -615 367 -914 39 -186 52 -302 58 -506 12 -432 -56 -799 -224 -1197 -29
-70 -53 -134 -53 -141 0 -25 37 -50 64 -43 75 19 224 449 285 822 114 696 -26
1410 -394 2015 -80 131 -104 150 -145 109z"/>
<path d="M2579 6998 c-47 -76 -179 -356 -179 -381 0 -35 40 -63 68 -48 20 11
212 384 212 412 0 22 -32 49 -58 49 -14 0 -30 -12 -43 -32z"/>
<path d="M5893 6595 c-59 -18 -126 -59 -156 -95 -28 -32 -111 -70 -156 -70
-16 0 -39 9 -52 20 l-24 19 28 1 c27 0 27 1 27 65 l0 65 -209 0 -210 0 -3 -37
c-3 -36 -6 -39 -71 -66 -38 -15 -77 -27 -88 -25 -18 3 -15 10 25 62 25 32 46
60 46 62 0 2 -39 4 -87 4 l-88 -1 -38 -47 -37 -48 -68 7 c-37 4 -75 6 -84 3
-15 -5 -18 2 -18 40 l0 46 -79 0 -80 0 -4 -92 c-3 -64 -11 -112 -27 -153 -20
-53 -22 -74 -18 -180 3 -96 9 -130 26 -169 12 -27 22 -63 22 -81 l0 -33 88 -4
c48 -2 234 -2 415 0 325 4 327 5 327 26 0 23 137 142 187 163 51 21 81 5 191
-100 139 -132 199 -162 327 -162 100 0 134 12 203 70 48 42 67 98 58 181 -3
33 -9 96 -12 142 l-6 82 -38 0 c-36 0 -39 3 -53 43 -28 78 -46 137 -41 137 3
0 21 -7 41 -15 20 -8 37 -14 39 -13 1 2 13 31 27 65 l25 61 -27 11 c-86 33
-248 42 -328 16z"/>
<path d="M8548 6529 c-25 -14 -22 -49 13 -164 97 -322 139 -613 139 -970 0
-222 -10 -359 -41 -545 -39 -234 -119 -525 -194 -701 -42 -96 -44 -123 -10
-145 40 -26 60 -11 94 71 114 273 192 566 237 885 26 180 26 681 0 865 -30
222 -120 604 -159 680 -18 36 -46 44 -79 24z"/>
<path d="M7456 6484 c-24 -23 -20 -53 18 -135 129 -279 199 -614 199 -949 0
-218 -18 -362 -70 -572 -36 -144 -36 -148 -18 -168 24 -27 61 -26 79 3 31 49
86 301 106 485 18 165 8 504 -20 652 -42 226 -101 423 -175 586 -52 113 -81
137 -119 98z"/>
<path d="M7746 6474 c-22 -21 -20 -32 13 -118 17 -40 44 -118 62 -172 38 -119
52 -144 83 -144 23 0 56 28 56 48 0 39 -114 355 -138 385 -19 21 -55 22 -76 1z"/>
<path d="M2331 6432 c-44 -35 -134 -409 -166 -682 -29 -259 -17 -635 30 -905
47 -273 160 -615 281 -857 34 -68 56 -85 94 -73 41 13 35 48 -29 189 -171 376
-254 708 -282 1133 -22 335 28 742 131 1073 25 83 25 105 -2 124 -28 20 -31
20 -57 -2z"/>
<path d="M2846 6375 c-16 -16 -68 -169 -106 -312 -23 -87 -19 -116 20 -128 35
-11 59 12 75 73 9 31 36 120 60 197 41 128 43 141 29 162 -17 27 -55 30 -78 8z"/>
<path d="M1450 6105 c-30 -36 -70 -429 -70 -685 0 -139 2 -159 18 -173 26 -23
58 -21 76 5 13 18 16 55 16 193 1 184 10 309 36 508 13 91 15 134 7 145 -14
23 -66 27 -83 7z"/>
<path d="M1700 5990 c-38 -70 -63 -637 -41 -903 38 -440 159 -884 351 -1283
100 -209 266 -491 304 -516 22 -15 56 -7 72 17 18 28 28 6 -90 199 -270 437
-441 916 -511 1434 -38 282 -38 658 0 930 14 97 14 107 -2 124 -22 25 -69 24
-83 -2z"/>
<path d="M8930 5930 c-15 -15 -19 -29 -16 -53 70 -434 29 -1001 -108 -1475
-101 -347 -301 -770 -492 -1038 -50 -71 -56 -106 -20 -129 44 -29 73 1 200
208 340 551 522 1135 555 1777 15 281 -11 673 -46 713 -21 23 -48 22 -73 -3z"/>
<path d="M2691 5733 c-18 -16 -22 -35 -31 -158 -37 -482 81 -1020 321 -1461
69 -127 204 -331 230 -347 26 -16 68 0 75 29 5 21 -7 46 -69 137 -172 257
-278 481 -357 757 -74 258 -93 416 -94 753 -1 264 -2 279 -20 293 -25 18 -29
18 -55 -3z"/>
<path d="M8448 5713 c-13 -15 -15 -50 -10 -237 4 -196 7 -221 23 -237 25 -25
44 -24 70 2 22 22 22 27 16 236 -5 185 -8 217 -23 234 -21 24 -56 25 -76 2z"/>
<path d="M7973 5560 c-29 -12 -31 -23 -37 -245 -6 -210 -22 -338 -67 -524 -96
-394 -285 -766 -541 -1063 -102 -119 -111 -133 -103 -158 8 -25 40 -43 64 -35
22 7 153 157 239 273 94 127 169 253 248 417 181 376 265 726 268 1123 1 181
0 194 -18 208 -22 16 -23 16 -53 4z"/>
<path d="M9238 5473 c-12 -14 -17 -58 -21 -203 -7 -200 -16 -292 -49 -498 -20
-127 -20 -133 -3 -152 24 -27 61 -25 79 3 29 47 72 384 83 654 6 158 5 175
-12 193 -22 25 -57 26 -77 3z"/>
<path d="M1900 5430 c-24 -24 -25 -65 -10 -270 21 -279 36 -331 95 -316 38 10
44 39 29 161 -7 61 -16 177 -20 259 -6 125 -10 152 -25 167 -24 24 -44 24 -69
-1z"/>
<path d="M9468 5433 c-12 -14 -17 -57 -22 -185 -31 -843 -304 -1620 -804
-2293 -45 -60 -82 -115 -82 -122 0 -20 37 -53 60 -53 24 0 101 96 225 281 317
472 533 998 639 1559 38 197 54 338 68 577 11 202 11 213 -7 233 -22 25 -57
26 -77 3z"/>
<path d="M2425 5250 c-15 -17 -17 -31 -11 -107 8 -100 33 -269 47 -326 14 -55
69 -71 97 -27 9 14 7 43 -7 127 -11 59 -22 149 -26 198 -4 50 -12 101 -17 115
-17 44 -53 53 -83 20z"/>
<path d="M2939 5229 c-14 -14 -19 -29 -15 -47 2 -15 7 -54 11 -87 10 -97 46
-268 61 -292 17 -27 55 -30 78 -7 20 19 20 22 -3 135 -11 52 -24 137 -31 189
-12 98 -28 130 -62 130 -10 0 -27 -9 -39 -21z"/>
<path d="M3790 5196 c0 -8 6 -16 13 -19 24 -8 -14 -37 -49 -37 l-34 0 0 -250
c0 -170 3 -250 11 -250 6 0 21 13 35 29 14 17 34 33 44 36 16 5 20 15 20 49 0
49 13 65 80 94 82 36 110 83 110 188 0 125 -46 174 -164 174 -50 0 -66 -3 -66
-14z m100 -161 c16 -19 7 -41 -18 -47 -26 -7 -38 1 -46 35 -6 25 -4 27 23 27
16 0 34 -7 41 -15z"/>
<path d="M4110 4955 l0 -255 33 -19 c17 -11 44 -32 59 -48 25 -25 34 -28 98
-28 63 0 72 3 95 27 28 30 32 48 11 48 -19 0 -42 30 -38 52 3 16 -4 18 -75 18
l-78 0 0 195 c0 122 -4 196 -10 197 -5 2 -11 -7 -13 -20 -3 -23 -4 -23 -23 -6
-12 11 -19 30 -19 56 0 31 -3 38 -20 38 -19 0 -20 -7 -20 -255z"/>
<path d="M4669 5183 c-71 -185 -189 -510 -189 -520 0 -9 17 -13 55 -13 39 0
55 4 55 13 0 7 13 26 29 41 28 27 29 27 97 15 66 -11 169 -44 189 -61 14 -13
55 -9 55 5 0 31 -66 197 -78 197 -9 0 -12 7 -9 20 6 24 -68 258 -88 279 -12
13 -15 12 -21 -2 -9 -25 -18 -21 -37 18 -20 42 -44 45 -58 8z m86 -264 c22
-42 13 -59 -29 -59 -44 0 -50 10 -32 55 18 43 40 45 61 4z"/>
<path d="M5036 5188 c4 -13 10 -37 14 -54 4 -18 34 -81 67 -140 76 -140 83
-160 83 -259 0 -89 4 -95 58 -95 49 0 53 10 50 106 -2 73 -6 89 -20 92 -9 2
-18 -5 -21 -15 -4 -15 -5 -14 -6 4 -1 15 7 24 28 31 23 8 41 34 93 133 36 68
67 138 71 154 3 17 9 38 12 48 5 11 2 17 -8 17 -8 0 -29 -22 -46 -50 -20 -33
-38 -50 -51 -50 -17 0 -18 3 -9 27 6 16 6 30 1 35 -11 11 -36 -22 -74 -94 -14
-25 -29 -43 -35 -40 -5 4 -25 35 -44 69 -22 41 -40 63 -52 63 -14 0 -17 -5
-12 -19 10 -33 -32 -14 -56 25 -24 39 -55 47 -43 12z m266 -193 c0 -5 -5 -11
-11 -13 -6 -2 -11 4 -11 13 0 9 5 15 11 13 6 -2 11 -8 11 -13z"/>
<path d="M5110 5195 c0 -10 7 -15 18 -13 21 4 19 22 -2 26 -10 2 -16 -3 -16
-13z"/>
<path d="M5530 4955 l0 -255 33 -19 c17 -11 44 -32 59 -48 25 -25 34 -28 98
-28 63 0 72 3 95 27 28 30 32 48 11 48 -19 0 -42 30 -38 52 3 16 -4 18 -75 18
l-78 0 0 195 c0 122 -4 196 -10 197 -5 2 -11 -7 -13 -20 -3 -23 -4 -23 -23 -6
-12 11 -19 30 -19 56 0 31 -3 38 -20 38 -19 0 -20 -7 -20 -255z"/>
<path d="M5928 5083 c-1 -70 -1 -141 -1 -158 1 -16 2 -85 2 -151 0 -136 1
-136 69 -127 l40 5 4 104 c5 135 0 184 -18 184 -19 0 -18 24 1 40 22 18 22
170 0 170 -9 0 -19 -9 -23 -21 -11 -29 -29 -6 -34 41 -2 24 -9 36 -20 38 -16
3 -18 -9 -20 -125z"/>
<path d="M6320 5195 c0 -8 5 -15 11 -15 8 0 8 -5 -1 -15 -7 -9 -29 -15 -52
-15 -80 0 -128 -45 -128 -123 0 -83 41 -132 145 -177 60 -26 115 -66 115 -84
0 -37 -106 -22 -145 20 -26 28 -45 31 -45 8 0 -11 -5 -14 -16 -10 -9 3 -18 6
-20 6 -2 0 -4 14 -4 30 0 19 -5 30 -14 30 -23 0 -26 -13 -19 -69 7 -60 34
-106 82 -138 42 -28 80 -29 114 -3 15 12 49 27 76 36 54 16 100 60 102 97 5
102 -13 125 -146 191 -51 26 -99 53 -105 61 -22 27 -4 45 45 45 37 0 51 -6 84
-35 31 -28 47 -35 79 -35 23 0 43 4 47 9 3 6 2 29 -1 52 -8 50 -62 115 -111
136 -44 18 -93 17 -93 -2z"/>
<path d="M6610 5195 c0 -8 4 -15 9 -15 6 0 6 -11 0 -29 -8 -23 -7 -35 6 -55
15 -22 25 -26 66 -26 44 0 51 -3 59 -26 6 -14 10 -54 10 -89 0 -35 4 -66 8
-69 5 -3 5 -27 1 -53 -14 -83 -11 -173 6 -179 12 -5 77 35 98 61 14 17 2 216
-14 225 -11 7 -9 17 10 52 35 63 40 68 84 75 27 4 41 12 44 24 3 11 9 19 14
19 5 0 9 7 9 15 0 8 -7 15 -15 15 -18 0 -34 28 -28 51 5 17 -1 19 -66 19 -56
0 -71 -3 -71 -15 0 -8 5 -15 12 -15 8 0 6 -6 -4 -17 -14 -13 -20 -14 -32 -3
-9 7 -16 21 -16 31 0 17 -9 19 -95 19 -78 0 -95 -3 -95 -15z"/>
<path d="M6990 5195 c0 -8 7 -15 15 -15 8 0 15 7 15 15 0 8 -7 15 -15 15 -8 0
-15 -7 -15 -15z"/>
<path d="M1196 4944 c-19 -18 -20 -41 -5 -137 100 -677 346 -1292 741 -1850
146 -206 431 -532 474 -543 30 -8 64 19 64 50 0 13 -37 61 -93 121 -301 326
-502 613 -688 984 -196 392 -320 787 -389 1236 -14 95 -24 133 -37 142 -23 17
-48 16 -67 -3z"/>
<path d="M6212 4838 c7 -19 38 -22 38 -4 0 10 -9 16 -21 16 -12 0 -19 -5 -17
-12z"/>
<path d="M4387 4744 c-9 -10 2 -24 19 -24 8 0 14 7 14 15 0 15 -21 21 -33 9z"/>
<path d="M5807 4744 c-9 -10 2 -24 19 -24 8 0 14 7 14 15 0 15 -21 21 -33 9z"/>
<path d="M8362 4672 c-7 -5 -30 -67 -52 -138 -68 -225 -133 -387 -232 -573
-259 -490 -644 -901 -1120 -1195 -80 -49 -97 -71 -79 -105 21 -38 48 -35 131
13 652 379 1197 1094 1409 1850 29 101 30 111 16 133 -15 23 -49 30 -73 15z"/>
<path d="M3064 4634 c-16 -24 -16 -29 21 -122 180 -455 485 -837 900 -1124 95
-66 257 -158 277 -158 23 0 50 36 46 62 -3 24 -21 37 -188 138 -151 91 -258
177 -411 329 -242 241 -405 487 -519 781 -18 47 -40 93 -48 103 -22 25 -59 21
-78 -9z"/>
<path d="M2519 4629 c-14 -26 -4 -68 57 -238 103 -286 304 -637 500 -871 226
-271 540 -533 820 -686 70 -38 71 -38 97 -21 43 28 36 62 -18 95 -96 57 -292
186 -349 230 -452 343 -791 819 -977 1371 -21 62 -44 119 -50 127 -18 22 -66
17 -80 -7z"/>
<path d="M1992 4608 c-19 -19 -14 -55 23 -185 194 -683 630 -1323 1205 -1769
119 -92 197 -144 219 -144 28 0 57 44 45 69 -5 11 -72 66 -149 124 -589 440
-1016 1054 -1216 1749 -23 78 -48 149 -57 156 -20 15 -54 16 -70 0z"/>
<path d="M7500 4503 c-6 -10 -31 -60 -55 -112 -25 -51 -63 -124 -85 -161 -55
-95 -52 -140 11 -140 35 0 50 21 145 204 78 152 89 197 55 216 -29 15 -60 12
-71 -7z"/>
<path d="M7827 3986 c-8 -8 -36 -50 -63 -93 -26 -43 -77 -118 -111 -167 -35
-49 -63 -99 -63 -112 0 -32 41 -59 68 -45 44 24 265 361 255 389 -15 43 -57
57 -86 28z"/>
<path d="M8352 3872 c-10 -10 -40 -58 -66 -108 -27 -49 -82 -140 -122 -201
-101 -155 -98 -150 -79 -179 18 -29 56 -32 81 -6 53 52 274 424 274 460 0 46
-55 67 -88 34z"/>
<path d="M6923 3689 c-284 -262 -631 -450 -1007 -545 -128 -32 -340 -64 -431
-64 -83 0 -115 -16 -115 -59 0 -48 18 -55 138 -48 546 32 1069 257 1492 640
85 78 97 99 75 133 -27 42 -56 31 -152 -57z"/>
<path d="M2893 3460 c-12 -5 -24 -18 -28 -30 -10 -30 25 -77 172 -230 103
-108 130 -130 154 -130 29 0 49 23 49 56 0 10 -42 61 -92 113 -51 53 -120 126
-154 164 -62 70 -65 71 -101 57z"/>
<path d="M6979 3379 c-57 -45 -130 -99 -161 -120 -32 -22 -62 -48 -68 -60 -21
-39 16 -87 57 -72 26 9 132 85 245 176 76 59 98 83 98 101 0 29 -24 56 -50 56
-10 0 -65 -37 -121 -81z"/>
<path d="M3650 3371 c-22 -41 -11 -59 68 -120 92 -70 244 -169 263 -171 8 -2
20 -2 26 -1 19 2 44 46 37 65 -4 10 -45 43 -92 73 -47 30 -121 82 -163 114
-83 63 -121 73 -139 40z"/>
<path d="M7142 3196 c-355 -287 -789 -493 -1226 -581 -221 -45 -361 -57 -602
-53 -237 3 -254 0 -254 -47 0 -12 9 -30 21 -41 20 -18 39 -19 263 -19 258 0
394 14 616 61 465 99 920 321 1278 622 55 47 66 77 36 106 -26 27 -49 18 -132
-48z"/>
<path d="M2096 3188 c-9 -12 -16 -28 -16 -34 0 -14 125 -184 225 -304 43 -52
133 -150 199 -217 93 -96 125 -123 146 -123 33 0 50 17 50 48 0 18 -35 61
-128 157 -113 116 -233 258 -369 439 -48 62 -80 73 -107 34z"/>
<path d="M4786 3117 c-20 -15 -25 -62 -8 -79 14 -14 231 -54 344 -63 85 -7 86
-7 103 18 13 20 14 30 5 47 -15 27 -39 36 -129 44 -41 4 -119 16 -175 27 -120
23 -117 23 -140 6z"/>
<path d="M4201 3036 c-7 -8 -11 -27 -9 -43 4 -34 48 -57 244 -128 465 -170
971 -206 1456 -106 135 28 317 82 334 99 18 18 18 56 -1 72 -22 18 -50 16
-145 -14 -487 -148 -1050 -139 -1545 26 -66 22 -155 55 -198 74 -85 37 -118
42 -136 20z"/>
<path d="M3320 2989 c-21 -38 -2 -62 105 -142 605 -450 1345 -677 2073 -636
234 13 252 18 252 70 0 48 -19 51 -228 38 -713 -46 -1447 174 -2023 606 -121
91 -158 104 -179 64z"/>
<path d="M2616 2984 c-9 -8 -16 -28 -16 -43 0 -23 29 -57 163 -187 293 -286
550 -471 905 -652 347 -177 700 -293 1087 -357 83 -14 193 -28 246 -32 96 -6
97 -6 114 21 16 24 16 28 1 50 -11 18 -28 26 -58 30 -24 3 -99 12 -168 21
-798 99 -1535 468 -2120 1059 -57 58 -112 106 -122 106 -9 0 -24 -7 -32 -16z"/>
<path d="M7885 2849 c-573 -579 -1375 -953 -2210 -1030 -87 -8 -136 -17 -147
-27 -25 -21 -22 -59 6 -77 20 -13 39 -14 142 -5 533 48 1060 213 1514 475 283
163 497 324 727 549 147 143 162 166 127 200 -32 32 -57 19 -159 -85z"/>
<path d="M7329 2683 c-388 -286 -859 -490 -1351 -587 -216 -43 -398 -58 -678
-58 -163 0 -259 -3 -267 -10 -18 -15 -16 -63 4 -79 26 -22 578 -19 743 4 558
78 1042 261 1497 565 189 126 217 157 175 195 -29 27 -55 20 -123 -30z"/>
<path d="M8100 2674 c-120 -123 -397 -355 -528 -442 -55 -37 -71 -67 -52 -101
19 -36 59 -26 146 36 163 116 314 244 472 397 85 83 97 109 66 140 -27 27 -57
19 -104 -30z"/>
<path d="M4463 2668 c-52 -68 4 -96 317 -163 117 -25 146 -21 156 21 11 44
-18 61 -151 88 -66 13 -154 34 -195 45 -86 24 -114 26 -127 9z"/>
<path d="M6605 2578 c-49 -22 -132 -55 -184 -74 -110 -40 -121 -47 -121 -83 0
-33 17 -51 46 -51 40 0 375 132 412 162 15 13 16 60 0 76 -20 20 -59 13 -153
-30z"/>
<path d="M8157 2414 c-610 -578 -1398 -954 -2255 -1075 -69 -9 -86 -16 -98
-35 -17 -26 -7 -56 24 -73 17 -9 233 20 392 54 634 133 1258 429 1767 838 185
148 353 311 353 343 0 23 -33 54 -57 54 -8 0 -64 -48 -126 -106z"/>
<path d="M4277 2182 c-22 -24 -22 -55 1 -74 36 -33 445 -132 518 -126 32 2 40
8 48 31 16 46 -11 61 -174 96 -80 18 -191 45 -248 61 -121 35 -124 35 -145 12z"/>
<path d="M2758 2178 c-45 -35 -23 -71 90 -154 599 -438 1253 -702 1969 -794
179 -24 529 -41 555 -28 31 15 41 46 25 72 -14 21 -25 23 -228 34 -248 13
-404 32 -615 73 -596 116 -1134 355 -1645 731 -59 43 -113 78 -121 78 -8 0
-21 -6 -30 -12z"/>
<path d="M4622 1589 c-29 -11 -39 -55 -17 -79 29 -32 272 -65 591 -81 249 -12
276 -8 282 44 6 51 -3 53 -209 60 -190 7 -390 25 -545 51 -45 7 -90 9 -102 5z"/>
</g>
</svg>
