<svg id="bf7722fd-d575-4d96-ad7b-aa34e8999cb7" data-name="Layer 1" xmlns="http://www.w3.org/2000/svg" viewBox="0 0 250 250"><defs><style>.b5f5743b-b786-403c-94f3-1c59060dfee8{fill:#139c61;}</style></defs><title>qrcode_edit</title><g id="a68ee4a0-d01f-4db4-95e0-c40274f7b1d2" data-name="elements"><path class="b5f5743b-b786-403c-94f3-1c59060dfee8" d="M10,0h0V10H0A10,10,0,0,1,10,0Zm0,0H20V10H10ZM20,0H30V10H20ZM30,0H40V10H30ZM40,0H50V10H40ZM50,0H60V10H50ZM60,0h0A10,10,0,0,1,70,10H60ZM90,0h10V10H90Zm40,0h10V10H130Zm32.56,0h4.88A2.55,2.55,0,0,1,170,2.56V7.44A2.55,2.55,0,0,1,167.44,10h-4.88A2.55,2.55,0,0,1,160,7.44V2.56A2.55,2.55,0,0,1,162.56,0ZM190,0h0V10H180A10,10,0,0,1,190,0Zm0,0h10V10H190Zm10,0h10V10H200Zm10,0h10V10H210Zm10,0h10V10H220Zm10,0h10V10H230Zm10,0h0a10,10,0,0,1,10,10H240ZM0,10H10V20H0Zm60,0H70V20H60Zm22.44,0H90V20H82.44A2.44,2.44,0,0,1,80,17.56V12.44A2.44,2.44,0,0,1,82.44,10ZM90,10h10V20H90Zm20,0h10V20H110Zm10,0h10V20H120Zm10,0h10V20H130Zm22.17,0h5.27A2.55,2.55,0,0,1,160,12.56v4.88A2.55,2.55,0,0,1,157.44,20h-5.27A2.17,2.17,0,0,1,150,17.83V12.17A2.17,2.17,0,0,1,152.17,10ZM180,10h10V20H180Zm60,0h10V20H240ZM0,20H10V30H0Zm20,0H30V30H20Zm10,0H40V30H30Zm10,0h0A10,10,0,0,1,50,30H40Zm20,0H70V30H60Zm30,0h10V30H90Zm10,0h10V30H100Zm10,0h10V30H110Zm52.56,0h4.88A2.55,2.55,0,0,1,170,22.56v4.88A2.55,2.55,0,0,1,167.44,30h-4.88A2.55,2.55,0,0,1,160,27.44V22.56A2.55,2.55,0,0,1,162.56,20ZM180,20h10V30H180Zm30,0h0V30H200A10,10,0,0,1,210,20Zm0,0h10V30H210Zm10,0h10V30H220Zm20,0h10V30H240ZM0,30H10V40H0Zm20,0H30V40H20Zm10,0H40V40H30Zm10,0H50V40H40Zm20,0H70V40H60Zm22.44,0H90V40H82.44A2.44,2.44,0,0,1,80,37.56V32.44A2.44,2.44,0,0,1,82.44,30ZM90,30h10V40H90Zm20,0h10V40H110Zm22.44,0H140V40H130V32.44A2.44,2.44,0,0,1,132.44,30ZM140,30h7.56A2.44,2.44,0,0,1,150,32.44v5.12A2.44,2.44,0,0,1,147.56,40H140Zm40,0h10V40H180Zm20,0h10V40H200Zm10,0h10V40H210Zm10,0h10V40H220Zm20,0h10V40H240ZM0,40H10V50H0Zm20,0H30V50h0A10,10,0,0,1,20,40Zm10,0H40V50H30Zm10,0H50A10,10,0,0,1,40,50h0Zm20,0H70V50H60Zm40,0h10V50H100Zm20,0h10v7.33A2.66,2.66,0,0,1,127.33,50h-4.66A2.66,2.66,0,0,1,120,47.33Zm60,0h10V50H180Zm20,0h10V50h0a10,10,0,0,1-10-10Zm10,0h10V50H210Zm10,0h10a10,10,0,0,1-10,10h0Zm20,0h10V50H240ZM0,50H10V60H0Zm60,0H70V60H60Zm22.44,0h5.17A2.39,2.39,0,0,1,90,52.39V60H80V52.44A2.44,2.44,0,0,1,82.44,50ZM100,50h10V60H100Zm40,0h10V60H140Zm10,0h10V60H150Zm30,0h10V60H180Zm60,0h10V60H240ZM0,60H10V70h0A10,10,0,0,1,0,60Zm10,0H20V70H10Zm10,0H30V70H20Zm10,0H40V70H30Zm10,0H50V70H40Zm10,0H60V70H50Zm10,0H70A10,10,0,0,1,60,70h0Zm20,0H90v7.39A2.61,2.61,0,0,1,87.39,70H82.61A2.61,2.61,0,0,1,80,67.39Zm20,0h10V70H100Zm20,0h10V70H120Zm20,0h10V70H140Zm20,0h10V70H160Zm20,0h10V70h0a10,10,0,0,1-10-10Zm10,0h10V70H190Zm10,0h10V70H200Zm10,0h10V70H210Zm10,0h10V70H220Zm10,0h10V70H230Zm10,0h10a10,10,0,0,1-10,10h0ZM120,70h10V80H120Zm20,0h10V80H140Zm10,0h10V80H150Zm10,0h10V80H160ZM0,80H10V90H0Zm10,0H20V90H10Zm10,0H30V90H20Zm10,0H40V90H30Zm10,0H50V90H40Zm20,0H70V90H60Zm10,0H80V90H70Zm10,0H90V90H80Zm10,0h10V90H90Zm10,0h10V90H100Zm20,0h10V90H120Zm10,0h10V90H130Zm10,0h10V90H140Zm10,0h10V90H150Zm10,0h10V90H160Zm10,0h10V90H170Zm22.44,0h5.12A2.44,2.44,0,0,1,200,82.44V90H190V82.44A2.44,2.44,0,0,1,192.44,80Zm20.28,0h4.56A2.72,2.72,0,0,1,220,82.72v4.56A2.72,2.72,0,0,1,217.28,90h-4.56A2.72,2.72,0,0,1,210,87.28V82.72A2.72,2.72,0,0,1,212.72,80ZM230,80h10V90H230ZM0,90H10v10H0Zm10,0H20v10H10Zm10,0H30v10H20Zm10,0H40v10H30Zm10,0H50v10H40Zm30,0H80v10H70Zm10,0H90v10H80Zm10,0h10v10H90Zm40,0h10v10H130Zm30,0h10v10H160Zm30,0h10v7.11a2.89,2.89,0,0,1-2.89,2.89h-4.22A2.89,2.89,0,0,1,190,97.11Zm40,0h10v10H230ZM0,100H10v10H0Zm20,0H30v10H20Zm10,0H40v10H30Zm30,0H70v10H60Zm20,0H90v10H80Zm10,0h10v10H90Zm20,0h10v10H110Zm10,0h10v10H120Zm20,0h10v10H140Zm10,0h10v10H150Zm10,0h10v10H160Zm10,0h10v10H170Zm42.72,0h4.56a2.72,2.72,0,0,1,2.72,2.72v4.56a2.72,2.72,0,0,1-2.72,2.72h-4.56a2.72,2.72,0,0,1-2.72-2.72v-4.56A2.72,2.72,0,0,1,212.72,100ZM230,100h10v10H230Zm10,0h10v10H240ZM10,110H20v10H10Zm10,0H30v10H20Zm30,0H60v10H50Zm30,0H90v10H80Zm10,0h10v10H90Zm10,0h10v10H100Zm10,0h10v10H110Zm70,0h10v10H180Zm60,0h10v10H240ZM0,120H10v10H0Zm30,0h7.85A2.15,2.15,0,0,1,40,122.15v5.7A2.15,2.15,0,0,1,37.85,130H32.3a2.3,2.3,0,0,1-2.3-2.3Zm30,0H70v10H60Zm10,0H80v10H70Zm10,0H90v10H80Zm10,0h10v10H90Zm20,0h10v10H110Zm10,0h10v10H120Zm10,0h10v10H130Zm10,0h10v10H140Zm10,0h10v10H150Zm10,0h10v10H160Zm10,0h10v10H170Zm10,0h10v10H180Zm10,0h10v10H190Zm10,0h10v10H200Zm20,0h10v10H220Zm10,0h10v10H230Zm10,0h10v10H240ZM0,130H10v10H0Zm80,0H90v10H80Zm10,0h10v10H90Zm10,0h10v10H100Zm20,0h10v10H120Zm20,0h10v10H140Zm20,0h10v10H160Zm30,0h10v10H190Zm20,0h10v10H210Zm20,0h10v10H230ZM0,140H10v10H0Zm22.78,0h4.44A2.77,2.77,0,0,1,30,142.78V150H20v-7.22A2.77,2.77,0,0,1,22.78,140Zm20.7,0H50v10H40v-6.52A3.48,3.48,0,0,1,43.48,140ZM50,140H60v10H50Zm10,0h6.56A3.44,3.44,0,0,1,70,143.44v3.12A3.44,3.44,0,0,1,66.56,150H60Zm20,0H90v10H80Zm50,0h10v10H130Zm20,0h10v10H150Zm10,0h10v10H160Zm20,0h10v10H180Zm10,0h10v10H190Zm10,0h10v10H200Zm10,0h10v10H210Zm20,0h10v10H230Zm10,0h10v10H240ZM0,150H10v10H0Zm20,0H30v10H23.7a3.7,3.7,0,0,1-3.7-3.7Zm20,0H50v10H40Zm60,0h10v10H100Zm10,0h10v10H110Zm30,0h10v10H140Zm10,0h10v10H150Zm20,0h10v10H170Zm10,0h10v10H180Zm10,0h10v10H190Zm10,0h10v10H200Zm40,0h10v10H240ZM0,160H10v5.85A4.15,4.15,0,0,1,5.85,170H0Zm30,0H40v10H33.7a3.7,3.7,0,0,1-3.7-3.7Zm10,0H50v6.22A3.78,3.78,0,0,1,46.22,170H40Zm22.67,0h4.66A2.66,2.66,0,0,1,70,162.67v4.66A2.66,2.66,0,0,1,67.33,170H62.67A2.66,2.66,0,0,1,60,167.33v-4.66A2.66,2.66,0,0,1,62.67,160ZM90,160h10v10H90Zm10,0h10v10H100Zm10,0h10v10H110Zm10,0h10v10H120Zm10,0h10v10H130Zm10,0h10v10H140Zm20,0h10v10H160Zm10,0h10v10H170Zm10,0h10v10H180Zm10,0h10v10H190Zm10,0h10v10H200Zm20,0h10v10H220ZM80,170H90v10H80Zm30,0h10v10H110Zm20,0h10v10H130Zm10,0h10v10H140Zm10,0h10v10H150Zm10,0h10v10H160Zm40,0h10v10H200Zm10,0h10v10H210ZM10,180h0v10H0A10,10,0,0,1,10,180Zm0,0H20v10H10Zm10,0H30v10H20Zm10,0H40v10H30Zm10,0H50v10H40Zm10,0H60v10H50Zm10,0h0a10,10,0,0,1,10,10H60Zm20,0H90v10H80Zm10,0h10v10H90Zm10,0h10v10H100Zm30,0h10v10H130Zm30,0h10v10H160Zm23.33,0h3.34a3.33,3.33,0,0,1,3.33,3.33v3.34a3.33,3.33,0,0,1-3.33,3.33h-3.34a3.33,3.33,0,0,1-3.33-3.33v-3.34A3.33,3.33,0,0,1,183.33,180ZM200,180h10v10H200Zm20,0h10v10H220Zm10,0h10v10H230Zm10,0h10v10H240ZM0,190H10v10H0Zm60,0H70v10H60Zm30,0h10v10H90Zm20,0h10v10H110Zm10,0h10v10H120Zm40,0h10v10H160Zm40,0h10v10H200Zm10,0h10v10H210ZM0,200H10v10H0Zm30,0h0v10H20A10,10,0,0,1,30,200Zm0,0H40v10H30Zm10,0h0a10,10,0,0,1,10,10H40Zm20,0H70v10H60Zm20,0H90v10H80Zm40,0h10v10H120Zm10,0h10v10H130Zm10,0h10v10H140Zm10,0h10v10H150Zm10,0h10v10H160Zm10,0h10v10H170Zm10,0h10v10H180Zm10,0h10v10H190Zm10,0h10v10H200Zm20,0h10v10H220ZM0,210H10v10H0Zm20,0H30v10H20Zm10,0H40v10H30Zm10,0H50v10H40Zm20,0H70v10H60Zm20,0H90v10H80Zm10,0h10v10H90Zm10,0h10v10H100Zm10,0h10v10H110Zm20,0h10v10H130Zm20,0h10v10H150Zm20,0h10v10H170Zm10,0h10v10H180Zm20,0h10v10H200Zm10,0h10v10H210Zm10,0h10v10H220Zm10,0h10v10H230Zm10,0h10v10H240ZM0,220H10v10H0Zm20,0H30v10H20Zm10,0H40v10H30Zm10,0H50a10,10,0,0,1-10,10h0Zm20,0H70v10H60Zm20,0H90v10H80Zm40,0h10v10H120Zm10,0h10v10H130Zm10,0h10v10H140Zm20,0h10v10H160Zm10,0h10v10H170Zm40,0h10v10H210Zm10,0h10v10H220Zm20,0h10v10H240ZM0,230H10v10H0Zm60,0H70v10H60Zm20,0H90v10H80Zm10,0h10v10H90Zm10,0h10v10H100Zm10,0h10v10H110Zm30,0h10v10H140Zm10,0h10v10H150Zm10,0h10v10H160Zm30,0h10v10H190Zm10,0h10v10H200Zm10,0h10v10H210Zm30,0h10v10H240ZM0,240H10v10h0A10,10,0,0,1,0,240Zm10,0H20v10H10Zm10,0H30v10H20Zm10,0H40v10H30Zm10,0H50v10H40Zm10,0H60v10H50Zm10,0H70a10,10,0,0,1-10,10h0Zm20,0H90v10H80Zm10,0h10v10H90Zm20,0h10v10H110Zm10,0h10v10H120Zm10,0h10v10H130Zm40,0h10v10H170Zm10,0h10v10H180Zm10,0h10v10H190Zm10,0h10v10H200Zm10,0h10v10H210Zm10,0h10v10H220Zm10,0h10v10H230Zm10,0h10v10H240Z"/></g></svg>