<svg xmlns="http://www.w3.org/2000/svg" xmlns:xlink="http://www.w3.org/1999/xlink" viewBox="0 0 863.03 769.78">
    <defs>
        <style>
            .a2356950-971d-4fa1-8110-c4851bf2cb08{fill:url(#fe7e0730-8578-48b1-915f-c3b7236820bb);}.e25ab42f-3ff9-404d-9576-7eca211f20b0{fill:#d24800;}
        </style>
        <linearGradient id="fe7e0730-8578-48b1-915f-c3b7236820bb" x1="467.65" x2="247.59" y1="323.72" y2="704.87" gradientUnits="userSpaceOnUse">
            <stop offset="0" stop-color="#1b275e"/>
            <stop offset="0.56" stop-color="#1c214a"/>
            <stop offset="1" stop-color="#1c1c37"/>
        </linearGradient>
    </defs>
    <g id="e378a3f2-05a0-4529-98b0-81e8b7e40855" data-name="Layer 2">
        <g id="a30cf286-6d48-4091-bbb6-eb0eb6eff0ea" data-name="1-2">
            <path d="M5,764.78V17.39l9.24,14.74C15.55,34.22,145.67,241.68,192,303.79c6,8.06,12.1,16.46,18.54,25.36,41.72,57.6,93.65,129.29,149.75,132.64,1.25.08,2.54.12,3.82.12,33.5,0,70.39-25.1,106.06-49.36,32.34-22,62.89-42.77,88.82-42.77,63,0,108.16,23.08,130.45,66.73l.22.42.13.44c.4,1.39,40.86,138.74,62.71,184.25,23.47,48.9,92.67,134.15,93.37,135l6.64,8.15Z" class="a2356950-971d-4fa1-8110-c4851bf2cb08"/>
            <path d="M10,34.78s131,209,178,272,105,156,172,160c1.37.09,2.74.13,4.12.13,66.09,0,143-92.13,194.88-92.13,53,0,102,17,126,64,0,0,40.72,138.59,63,185,24,50,94,136,94,136H10v-725M0,0V769.78H863l-13.27-16.31c-.7-.85-69.54-85.66-92.74-134C735.34,574.3,695,437.34,694.59,436l-.26-.89-.42-.83c-12.36-24.2-31.48-42.42-56.83-54.16-21.94-10.15-48.21-15.3-78.08-15.3-27.47,0-58.63,21.2-91.62,43.63-35.06,23.84-71.3,48.5-103.26,48.5-1.18,0-2.37,0-3.52-.11-23.49-1.4-48.31-15.55-75.9-43.25-25.09-25.19-49-58.2-70.1-87.33-6.46-8.91-12.55-17.33-18.58-25.42C149.79,238.85,19.78,31.56,18.47,29.47L0,0Z" class="e25ab42f-3ff9-404d-9576-7eca211f20b0"/>
        </g>
    </g>
</svg>
