<svg xmlns="http://www.w3.org/2000/svg" xmlns:xlink="http://www.w3.org/1999/xlink" viewBox="0 0 600.62 138.34">
    <defs>
        <style>
            .b8be0f0d-6616-4601-92f7-4112ab4a920f{fill:url(#e1f42c99-ed71-48cd-9684-37846bd84c43);}.a31bacb8-bac9-44dc-94a6-9446f3782d4c{fill:#d24800;}
        </style>
        <linearGradient id="e1f42c99-ed71-48cd-9684-37846bd84c43" x1="569.97" x2="144.32" y1="118.28" y2="43.22" gradientUnits="userSpaceOnUse">
            <stop offset="0" stop-color="#1c1c37"/>
            <stop offset="1" stop-color="#1b275e"/>
        </linearGradient>
    </defs>
    <g id="b023fc32-677a-4e4b-921e-e85ff08df880" data-name="Layer 2">
        <g id="a24c1d5c-3e95-4a78-a1d5-d2f214b28aa0" data-name="1-2">
            <path d="M2.81,135.84l.33-2.79c1.43-12.16,28.26-26.68,69-47.43,14.42-7.34,28.05-14.28,38.17-20.41,8.19-5,18.24-7.39,30.71-7.39,16.29,0,34.28,4,53.33,8.27,18.51,4.12,37.64,8.39,55.3,8.75l2.75,0c22.16,0,39.41-5.56,57.68-11.45,19.18-6.18,39-12.58,65.52-12.58,29.24,0,47.66,5.56,65.48,10.94,14,4.21,27.16,8.19,44.65,9.07.57,0,1.15,0,1.73,0h0c38.85,0,105.77-60.78,106.45-61.39l4.18-3.83V135.84Z" class="b8be0f0d-6616-4601-92f7-4112ab4a920f"/>
            <path d="M595.62,11.34v122H5.62c2-17,73-46,106-66,8.43-5.1,18.41-7,29.42-7,32.1,0,72.84,16.27,108.58,17l2.8,0c46.23,0,72.22-24,123.2-24,52,0,70,18,110,20,.62,0,1.24,0,1.87,0,40.27,0,108.13-62,108.13-62m5-11.34-8.37,7.65c-.67.61-66.89,60.74-104.76,60.74-.55,0-1.08,0-1.62,0-17.18-.86-30.23-4.8-44.05-9-18-5.42-36.59-11-66.2-11-26.9,0-46.92,6.46-66.28,12.7-18.08,5.83-35.16,11.33-56.92,11.33l-2.69,0c-17.42-.36-36.43-4.6-54.81-8.69-19.19-4.28-37.32-8.32-53.88-8.32-12.94,0-23.41,2.53-32,7.74-10,6.08-23.62,13-38,20.32C28.3,105.15,2.24,119.33.66,132.76L0,138.34H600.62V0Z" class="a31bacb8-bac9-44dc-94a6-9446f3782d4c"/>
        </g>
    </g>
</svg>
