<svg xmlns="http://www.w3.org/2000/svg" xmlns:xlink="http://www.w3.org/1999/xlink" viewBox="0 0 1006.62 587.86"><defs><style>.cls-1{fill:url(#linear-gradient);}.cls-2{fill:#fff;}</style><linearGradient id="linear-gradient" x1="51.19" y1="293.93" x2="1004.19" y2="293.93" gradientUnits="userSpaceOnUse"><stop offset="0.19" stop-color="#139c61"/><stop offset="0.6" stop-color="#128855"/><stop offset="1" stop-color="#107148"/></linearGradient></defs><title>Asset 12</title><g id="Layer_2" data-name="Layer 2"><g id="admin"><path id="THIS" class="cls-1" d="M147.14,13.3c-36-.81-67.25,21.46-69,23-26.21,23.06-12.41,41.57-41,95-21.67,40.5-38.87,47.2-37,72,.8,10.59,5.86,34.42,21,52,4.77,5.54,15.34,17.94,21.21,37.13a22.38,22.38,0,0,1,.79,3.87c3.47,26.8-21.77,38-21,62,.36,11.08,6.24,20.29,15,34,10,15.65,15.18,15.73,16,24,1.62,16.43-12,31.5-21.15,41.11l-.85.89c-2.42,2.57-10.14,11.41-10,24a32.39,32.39,0,0,0,4,15c10.43,18.18,34.32,9.41,53,25,18,15,6.58,32.17,24,46s46.65,10.72,65,3c19.26-8.1,20.86-18.84,38-21,16.09-2,18.24,7,39,8,24.59,1.2,30.94-11,48-6,16.16,4.74,13.55,16.6,28,22,20.72,7.75,33-13.9,79-21,9.37-1.44,36.73-5.38,45,7,1.47,2.2,6.2,11.56,8,14,4,5.5,16.34,11.46,25,13,31.65,5.62,97.79-33.24,118-34A156.87,156.87,0,0,1,622,554.93s19.78,5.18,31.55,7c7.33,1.14,12.71,1.47,23.63,1.36,14.64-.14,58-14.17,80-16,41.78-3.48,46.74,32.16,83,27,29.14-4.14,26.48-27.23,75-49,28.3-12.69,42-10.59,50-25,6.67-12,3.78-26.7-2-56-4.72-24-5.32-26.19-11-45-3.86-12.78-7.55-32.42,0-52,12.42-32.19,42.25-29.19,52-54,16.45-41.86-54.57-78.35-44-141,5.3-31.44,27.2-45.11,18-67-7.81-18.59-32-28.8-42-33-22.59-9.52-33.06-4.86-47-17s-9.25-20.78-20-27c-22.2-12.84-45.67,23.45-77,13-11-3.69-41.15-19.22-48-18a58.52,58.52,0,0,0-6.08,1.47,52.12,52.12,0,0,0-5.72,2.13h0c-11,4.92-14.94,12.08-38.2,18.4a149.07,149.07,0,0,1-59,4c-28.18-4.1-27.51-13.42-60-22-19-5-50.78-13.56-80,0-18.19,8.44-15.53,16.05-33,22-29.16,9.94-60.25-3.15-67-6-20-8.41-23.61-16.71-42-19-12.75-1.59-23.13.89-32,3-20.54,4.9-26.14,11.7-44,18-18.7,6.6-34.27,6.85-47,7C188.61,32.79,182,14.09,147.14,13.3Z"/><rect id="Rectangle_7-2" data-name="Rectangle 7-2" class="cls-2" x="59.68" y="38.7" width="870" height="496" rx="72"/></g></g></svg>