<svg xmlns="http://www.w3.org/2000/svg" xmlns:xlink="http://www.w3.org/1999/xlink" viewBox="0 0 1138.94 266">
    <defs>
        <style>
            .cls-1{fill:url(#linear-gradient);}
        </style>
        <linearGradient id="linear-gradient" x1="805.9" x2="534" y1="-143.77" y2="327.17" gradientUnits="userSpaceOnUse">
            <stop offset="0" stop-color="#139c61"/>
            <stop offset="0.51" stop-color="#128855"/>
            <stop offset="0.99" stop-color="#107148"/>
        </linearGradient>
    </defs>
    <title/>
    <g id="Layer_2" data-name="Layer 2">
        <g id="Layer_1-2" data-name="Layer 1">
            <path d="M1138.92.1V264.9a8.06,8.06,0,0,1,0,1.1H.1a.11.11,0,0,1-.09-.15c6.65-13.48,16.32-23.7,22.92-28.64,29.61-22.17,71.34-10.94,120.94-3,94,15.08,173.1,27.77,213.3-5.95,21-17.59,13-32.38,39.59-55.58,26.1-22.77,55.85-26.76,95.65-34.74,89.21-17.9,89.86-34.75,149.53-36.73,105.5-3.49,121.34,72.53,237.49,80.4,19.57,1.32,121.5,8.23,166-44.67,36.61-43.49,19.19-109.33,67.07-131A70.69,70.69,0,0,1,1138.82,0,.1.1,0,0,1,1138.92.1Z" class="cls-1"/>
        </g>
    </g>
</svg>
