<svg xmlns="http://www.w3.org/2000/svg" viewBox="0 0 50.32 53.91"><defs><style>.cls-1{fill:#54ba5e;}.cls-2{fill:#fff;}</style></defs><g id="Layer_2" data-name="Layer 2"><g id="Layer_1-2" data-name="Layer 1"><g id="Group_26" data-name="Group 26"><path id="spotify-brands" class="cls-1" d="M25.32,0a25.16,25.16,0,1,0,25,25.32v-.16A25.09,25.09,0,0,0,25.32,0ZM35.47,37a2,2,0,0,1-1.08-.36c-6.29-3.82-13.61-4-20.83-2.49a6.44,6.44,0,0,1-1.2.26,1.58,1.58,0,0,1-1.6-1.55v-.05a1.6,1.6,0,0,1,1.37-1.7c8.26-1.83,16.7-1.67,23.89,2.66a1.72,1.72,0,0,1,1,1.68A1.52,1.52,0,0,1,35.5,37Zm2.71-6.65a2.53,2.53,0,0,1-1.24-.43,32.46,32.46,0,0,0-24-3,4.43,4.43,0,0,1-1.2.26,2,2,0,0,1-1.95-2,2,2,0,0,1,1.56-2.1,33.9,33.9,0,0,1,9.86-1.38A35.09,35.09,0,0,1,39,26.39a2.11,2.11,0,0,1,1.14,2,2,2,0,0,1-2,2h0Zm3.13-7.74a2.22,2.22,0,0,1-1.3-.4c-7.18-4.31-20-5.34-28.32-3a4.86,4.86,0,0,1-1.3.27A2.34,2.34,0,0,1,8,17.17v-.08A2.4,2.4,0,0,1,9.8,14.67a41.9,41.9,0,0,1,11.84-1.54c7.36,0,15.07,1.54,20.71,4.85a2.39,2.39,0,0,1,1.3,2.29,2.34,2.34,0,0,1-2.32,2.36Z"/><ellipse id="Ellipse_8" data-name="Ellipse 8" class="cls-2" cx="38.99" cy="43.91" rx="9.5" ry="10"/><path id="check-solid" class="cls-1" d="M35,46.48l-4.74-4.73a.75.75,0,0,1,0-1h0l1-1a.74.74,0,0,1,1,0h0l3.2,3.19L42.32,36a.74.74,0,0,1,1,0h0l1,1a.74.74,0,0,1,0,1h0L36,46.48a.72.72,0,0,1-1,0Z"/></g></g></g></svg>